<svg fill="none" viewBox="0 0 67 95" xmlns="http://www.w3.org/2000/svg" xmlns:xlink="http://www.w3.org/1999/xlink" focusable="false" aria-hidden="true"><mask id="logo-penguin_svg__a" height="95" maskUnits="userSpaceOnUse" width="67" x="0" y="0"><path clip-rule="evenodd" d="m0 .558594h66.7984v94.008406h-66.7984z" fill="#fff" fill-rule="evenodd"></path></mask><g mask="url(#logo-penguin_svg__a)"><path clip-rule="evenodd" d="m33.3186.558669c-31.97969.066441-33.3314149 39.947031-33.31857324 47.269631.04075834 22.2233 9.09245324 46.7878 33.48997324 46.7386 24.3902-.0458 33.3464-24.7967 33.3085-47.0189-.0145-7.3248-1.5064-47.052423-33.4799-46.989331" fill="#1c1c1b" fill-rule="evenodd"></path></g><g clip-rule="evenodd" fill-rule="evenodd"><path d="m33.4897 93.2297c-23.172.0474-29.42754-24.5974-29.46774-45.7069-.01284-6.9568-1.18478-45.80227 29.19134-45.86257 30.3745-.06198 29.5381 38.98727 29.561 45.94577.0379 21.1179-6.1071 45.5868-29.2846 45.6237" fill="#1c1c1b"></path><path d="m33.4897 93.2297c-23.172.0474-29.42754-24.5974-29.46774-45.7069-.01284-6.9568-1.18478-45.80227 29.19134-45.86257 30.3745-.06198 29.5381 38.98727 29.561 45.94577.0379 21.1179-6.1071 45.5868-29.2846 45.6237" fill="#ff6401"></path><path d="m48.7713 36.896c-2.7196-4.3411-6.5414-9.4655-6.9685-14.7339-.2663-3.3103-.0715-7.0093-2.2981-9.7368-.6499-.7995-1.5606-1.5298-2.4684-2.001-.9754-.50588-2.2205-.8286-3.3243-.8286-1.0329 0-2.072.16136-3.0591.4601-1.1725.3534-2.3339.771-3.551.9419-1.4098.1965-2.5438.1256-3.9173-.1798-.8191-.1831-1.0441-.2473-1.8632-.4243-.4522-.0983-1.6783-.45452-2.0691-.0721-.9241.9269 1.0357 2.0469 1.6242 2.4645 1.2841.9313 1.8145 1.2423 3.039 2.2948 1.651 1.436 2.9642 3.1451 3.47 5.2835.1429.6158.1915 1.2428.1971 1.8832.1228 9.2321-15.2872 18.2972-15.0767 34.6508.0715 5.7849 3.1591 6.7346 3.1217 3.5286-.0542-3.8089 1.2986-7.9233 2.7006-11.4547.325-.8158 1.3612-1.0614 1.129.3534-.3613 2.2389-1.2814 6.1143-1.1954 12.4318.0139 1.5243.1111 3.0619.3249 4.5778.1798 1.2094.4456 2.4142.7962 3.5962.297.9905.6829 1.9447 1.1613 2.8554.3892.7196.8364 1.4075 1.3641 2.0312.5142.6141 1.0686 1.0658 1.6906 1.5533.3612.2886.7699.5376.9441.9977.2513.6605-.6019.9291-1.0468 1.134-.4908.2205-.9202.4678-1.3842.6945-.6649.3227-1.3271.6706-1.9748 1.0263-.3964.2278-.8486.3612-1.2328.6281-.3796.2456-.5739.6599.0229.7481.268.0514.5583-.0251.8392-.0402.4651-.0145.9642-.0798 1.4092.0916.6041.2384.574.8169.5969 1.3791.0251.6119.4444.8096.9899.6611.6214-.1765 1.0586-.6589 1.5432-1.062.3546-.297.7449-.6041 1.153-.8135.8336-.4159 1.8269-.2764 2.7224-.2334.4942.0263 1.1954.2373 1.5985-.1658.4104-.4165.1134-1.1211-.0686-1.575-.1681-.4361-.3786-.8537-.5935-1.268-.1-.1899-.2373-.359-.3222-.555-.3451-.8062 2.4561-1.412 2.8598-1.5298 1.364-.3635 2.79-.6885 4.1914-.7985 1.3355-.1178 2.8062-.1256 4.0635.3959.5422.2256.9821.6097 1.3389 1.0642.2055.2484.6711 1.0011.2563 1.3076-.6471.4735-1.3205.8833-1.9436 1.3836-.3992.3076-.7811.6303-1.1211 1.0167-.2535.2814-.3222.7872.1921.7554.6811-.0313 1.3634-.0687 2.039-.072.4858-.0023 1.0111.067 1.4221.3428.665.4545.8107 1.4249 1.5639 1.7956.2077.105.4651.105.6901.0363.4941-.1536.7219-.665.9882-1.0642.2451-.3557.4908-.7135.8822-.9291.2412-.1323.5187-.1837.7956-.1837.4964 0 .9955.009 1.4919.0603.3936.0514.9285.2334 1.2763-.0318.6555-.5103-1.0736-1.6465-1.4215-1.8659-.7878-.4914-1.9145-1.0106-2.1624-2.0257-.2836-1.1909.2965-2.4321.8006-3.4801.5254-1.1122 1.2412-2.1306 1.6471-3.3008.3847-1.0709.6711-2.1865.8342-3.3193.8632-6.1841-.5751-12.7657-2.3785-18.6696-.2161-.7063-.4869-1.4103-.7013-2.1166-.3121-1.1156.7699-1.3796 1.3244-.297.5276 1.0468 3.9893 7.7016 5.0021 12.6468.637 3.1573 3.0116 3.2824 2.9424-2.3126-.0921-8.1115-3.1473-13.9695-6.8977-19.9314" fill="#1c1c1b"></path><path d="m45.9142 61.3073c.4193 4.0809.8716 11.1209-4.1115 11.3599-1.3205.0631-2.9626-.8604-5.4086-.6957-4.1495.2853-5.3851 1.8754-8.7753 1.2669-1.9425-.3445-3.3752-1.4417-4.1914-3.3216-.9258-2.1395-1.005-4.5627-1.1536-6.8602-.1563-2.565-.1563-5.1518-.0055-7.7195.1144-1.8554.3076-3.7068.5533-5.5532.4059-3.0625 1.0563-6.0842 1.7548-9.0902.6114-2.6482 1.2535-5.3042 2.3975-7.7927.8392-1.8146 2.0842-3.5638 3.9323-4.4896 2.0134-1.0066 4.8318-1.0809 6.8128-.0681 4.4851 2.3004 4.3746 7.6531 4.5175 12.0025.1133 3.3506.5276 6.7927 1.1362 10.088.6639 3.6621 2.1546 7.1483 2.5415 10.8735" fill="#fff"></path><path d="m38.6603 16.4264c.919 1.0754.862 5.5158-.6444 7.0535-.8771.9017-2.3667 1.0184-3.5387 1.1853-1.2987.1843-2.5689.4701-3.8502.7895-1.2206.2976-1.1357-.9922.0379-1.9151 1.7549-1.3752 6.1584-1.9854 7.2198-7.1132.0369-.1943.2513-.6141.7756 0" fill="#fff"></path><path d="m32.2771 17.59c1.2261.7995 2.9815.2825 3.915-1.1558.9336-1.4382.6957-3.25-.5371-4.0501-1.2289-.7951-2.9871-.2792-3.9234 1.1569-.9307 1.4299-.6879 3.2467.5455 4.049" fill="#fff"></path><path d="m33.4357 14.7944c.4534-.6751 1.2669-.9224 1.809-.555.5327.3685.5969 1.2104.1363 1.8877-.4584.6728-1.2663.9212-1.8035.5561-.5427-.3707-.6018-1.2161-.1418-1.8888" fill="#1c1c1b"></path></g></svg>